<svg xmlns="http://www.w3.org/2000/svg" xmlns:xlink="http://www.w3.org/1999/xlink" viewBox="0 0 1368.59 280.53"><defs><style>.cls-1{fill:none;}.cls-2{clip-path:url(#clip-path);}.cls-3,.cls-4,.cls-5{fill:#5c666f;}.cls-4,.cls-5{stroke:#fff;stroke-miterlimit:10;}.cls-4{stroke-width:0.5px;}.cls-5{stroke-width:0.25px;}.cls-6{fill:#c9cccf;opacity:0.5;}</style><clipPath id="clip-path" transform="translate(1.17 -2.32)"><rect class="cls-1" width="1366" height="281"/></clipPath></defs><g id="Layer_2" data-name="Layer 2"><g id="Layer_1-2" data-name="Layer 1"><g class="cls-2"><path class="cls-3" d="M1331.3,32.88v-1h-35.16v.39l-.35.07c-13.59,3.09-27.16,6.36-40.83,9.06-6.35,1.26-13,3.46-19.39-.34-1-.58-2.44-.3-3.66-.5-10.37-1.77-21-1.28-31.26-3.14s-20.19-2.77-30.32-3.83a15.39,15.39,0,0,1-9.63-4.14c-5-4.77-11.72-7.09-17.27-11.14a7.13,7.13,0,0,0-4-.93c-11.33-.12-22.65,0-34-.24-10-.24-19.23,3.44-28.76,5.66a38.32,38.32,0,0,0-14.57,6.66c-4.24,3.19-8.69,4.94-14.19,4.4-13.3-1.31-26,2.14-37.81,7.44-5.4,2.41-9.07,2.6-14-.26-5.72-3.3-7.69-2.19-10.4,3.32-.51,1-.11,2.82-1.66,3.06-1.79.29-2-1.56-2.78-2.62-3.91-5.57-6.39-6.06-12-2.33-.57.38-1.17.73-1.73,1.13-5.87,4.22-13.33,6.29-17.43,12.9a1.49,1.49,0,0,1-.67.47c-6.49,3-12.93,6.22-20.4,6.08a16.7,16.7,0,0,0-5.72.78c-10.7,3.71-21.87,5.85-32.5,9.89A89.07,89.07,0,0,1,875.4,78.5L740.14,73.44c-2.25,0-3.09-1.91-4.29-3.44-3.59-4.58-7-10.4-13.14-10.78-8.29-.5-14-6.09-21.14-8.84A106.54,106.54,0,0,0,681,44.73c-6.76-1.15-13.58-1.1-20.39-1.28v-.22c-.93.06-1.87.1-2.81.13s-1.86-.07-2.79-.13v.22c-6.86.18-13.74.12-20.56,1.28a107.67,107.67,0,0,0-20.74,5.65c-7.16,2.75-12.94,8.34-21.29,8.84-6.21.38-9.62,6.2-13.23,10.78-1.21,1.53-2,3.48-4.32,3.44L438.65,78.5a89.87,89.87,0,0,1-15.52-4.73c-10.71-4-22-6.18-32.73-9.89a16.93,16.93,0,0,0-5.76-.78c-7.52.14-14-3-20.54-6.08a1.52,1.52,0,0,1-.68-.47c-4.12-6.61-11.64-8.68-17.54-12.9-.57-.4-1.17-.75-1.75-1.13-5.64-3.73-8.14-3.24-12.08,2.33-.75,1.06-1,2.91-2.8,2.62-1.56-.24-1.16-2-1.67-3.06-2.73-5.51-4.71-6.62-10.47-3.32-5,2.86-8.72,2.67-14.15.26-11.94-5.3-24.68-8.75-38.07-7.44-5.53.54-10-1.21-14.29-4.4a38.69,38.69,0,0,0-14.67-6.66c-9.59-2.22-18.84-5.9-29-5.66-11.39.26-22.8.12-34.2.24a7.18,7.18,0,0,0-4,.93c-5.6,4.05-12.35,6.37-17.39,11.14a15.6,15.6,0,0,1-9.7,4.14c-10.2,1.06-20.37,2-30.53,3.83s-21,1.37-31.48,3.14c-1.23.2-2.7-.08-3.69.5-6.47,3.8-13.12,1.6-19.52.34-13.76-2.7-27.42-6-41.11-9.06-5.62-1.27-11,.41-16.53.88V282.84H1367.42v-250Z" transform="translate(1.17 -2.32)"/><circle class="cls-4" cx="1054.44" cy="35.64" r="7.03"/><path class="cls-4" d="M1024.2,43.31a29.61,29.61,0,0,0,1.17,4.42l-5.49,3.17,5.41,9.39,5.49-3.17a29,29,0,0,0,3.22,3.24l-3.18,5.5,9.39,5.42,3.16-5.48a28.37,28.37,0,0,0,4.41,1.19v6.36h10.84V67a29.61,29.61,0,0,0,4.42-1.17l3.17,5.5,9.39-5.42-3.17-5.49a29.85,29.85,0,0,0,3.24-3.22l5.5,3.18,5.42-9.39-5.48-3.16a28.37,28.37,0,0,0,1.19-4.41h6.35V32.6h-6.32a29.63,29.63,0,0,0-1.18-4.42l5.5-3.17-5.42-9.39-5.48,3.17a30.78,30.78,0,0,0-3.22-3.24l3.18-5.5-9.39-5.42-3.16,5.48a28.68,28.68,0,0,0-4.41-1.19V2.57h-10.84V8.89a29.63,29.63,0,0,0-4.42,1.18l-3.17-5.5L1030.93,10l3.17,5.48a30.78,30.78,0,0,0-3.24,3.22l-5.5-3.18-5.42,9.39,5.48,3.16a28.5,28.5,0,0,0-1.19,4.42h-6.35V43.31Zm29.06-25.93A20.58,20.58,0,1,1,1032.69,38,20.6,20.6,0,0,1,1053.26,17.38Z" transform="translate(1.17 -2.32)"/><path class="cls-5" d="M1037,38a16.27,16.27,0,1,1,16.26,16.26A16.28,16.28,0,0,1,1037,38Zm3.61,0a12.66,12.66,0,1,0,12.65-12.66A12.66,12.66,0,0,0,1040.61,38Z" transform="translate(1.17 -2.32)"/><path class="cls-4" d="M798.63,77l-8.09,2.36,4,13.81,8.06-2.36A38.7,38.7,0,0,0,805.77,96l-5.82,6.1,10.4,9.93,5.8-6.07a39.69,39.69,0,0,0,5.31,2.92l-2,8.2,14,3.4,2-8.15a39.68,39.68,0,0,0,6.06-.13l2.36,8.09,13.81-4-2.36-8.06a38.7,38.7,0,0,0,5.19-3.14l6.09,5.82,9.94-10.4-6.07-5.8a40.32,40.32,0,0,0,2.92-5.31l8.19,2,3.41-14-8.15-2a39.65,39.65,0,0,0-.13-6.06l8.09-2.37-4-13.8-8.06,2.36a39.45,39.45,0,0,0-3.14-5.2l5.82-6.09L865,34.27l-5.8,6.07a39.19,39.19,0,0,0-5.31-2.92l2-8.2-14-3.4-2,8.15a39.65,39.65,0,0,0-6.06.13L831.46,26l-13.8,4L820,38.1a38.81,38.81,0,0,0-5.2,3.14l-6.09-5.82-9.93,10.4,6.07,5.8A38.6,38.6,0,0,0,802,56.93l-8.2-2-3.4,14,8.15,2A39.68,39.68,0,0,0,798.63,77Zm10.62-3.83a28.41,28.41,0,1,1,28.41,28.41A28.41,28.41,0,0,1,809.25,73.13Zm28.41-20a20,20,0,1,1-20,20A20,20,0,0,1,837.66,53.15Z" transform="translate(1.17 -2.32)"/><path class="cls-6" d="M872.36,110.12a20.85,20.85,0,0,0,.83,3.84l.25.8,5-.61a16.24,16.24,0,0,0,2.18,3.59l-3.06,3.91.61.63a21.05,21.05,0,0,0,5.48,4.08l.74.39,3.1-4a15.92,15.92,0,0,0,4.08,1l.6,4.93H893a20.26,20.26,0,0,0,2.92-.15,21,21,0,0,0,3.85-.84l.79-.25-.61-5a15.83,15.83,0,0,0,3.59-2.17l3.92,3.06.62-.61a21.36,21.36,0,0,0,4.09-5.49l.38-.74-4-3.09a16.47,16.47,0,0,0,1-4.08l4.92-.6,0-.88a21.69,21.69,0,0,0-1-6.76l-.25-.8-5,.61a16.47,16.47,0,0,0-2.18-3.59l3.06-3.91-.61-.63a21.28,21.28,0,0,0-5.48-4.08l-.74-.39-3.1,4a15.92,15.92,0,0,0-4.08-1l-.6-4.93h-.87a20.26,20.26,0,0,0-2.92.15,21,21,0,0,0-3.85.84l-.79.25.61,5a16.12,16.12,0,0,0-3.6,2.17l-3.91-3.06-.62.61a21.14,21.14,0,0,0-4.09,5.49l-.38.74,4,3.09a16.47,16.47,0,0,0-1,4.08l-4.93.6v.88A21.89,21.89,0,0,0,872.36,110.12Zm6.4-1.27a14.68,14.68,0,1,1,15.93,13.33A14.68,14.68,0,0,1,878.76,108.85Zm8.39-.74a6.26,6.26,0,1,0,5.68-6.79A6.27,6.27,0,0,0,887.15,108.11Zm1.68-.15a4.57,4.57,0,1,1,5,4.15A4.58,4.58,0,0,1,888.83,108Z" transform="translate(1.17 -2.32)"/><path class="cls-6" d="M1011.33,74.37,1009,76.23l.27.45a12.15,12.15,0,0,0,1,1.46,13.86,13.86,0,0,0,1.63,1.71l.38.33,2.37-1.88a9.73,9.73,0,0,0,2.24,1.16l-.34,3,.51.13a12.59,12.59,0,0,0,4.1.38l.5,0,.35-3a9.81,9.81,0,0,0,2.41-.77l1.85,2.35.45-.27a12.27,12.27,0,0,0,3.17-2.63l.33-.38-1.88-2.37a9.56,9.56,0,0,0,1.17-2.24l3,.34.14-.51a13.1,13.1,0,0,0,.38-4.09l0-.5-3-.35a9.55,9.55,0,0,0-.77-2.41l2.35-1.86-.27-.45a12.34,12.34,0,0,0-1-1.45,12.7,12.7,0,0,0-1.64-1.72l-.38-.33-2.37,1.88a9.92,9.92,0,0,0-2.24-1.16l.34-3-.51-.13a12.51,12.51,0,0,0-4.09-.38l-.5,0-.35,3a9.15,9.15,0,0,0-2.41.76L1014.24,59l-.45.27a11.3,11.3,0,0,0-1.45,1,13.27,13.27,0,0,0-1.72,1.63l-.33.38,1.88,2.37a10.13,10.13,0,0,0-1.16,2.24l-3-.34-.13.51a12.59,12.59,0,0,0-.38,4.1l0,.5,3,.35A9.19,9.19,0,0,0,1011.33,74.37Zm4.42-10.23a7.57,7.57,0,1,1-1.59,10.59A7.55,7.55,0,0,1,1015.75,64.14Z" transform="translate(1.17 -2.32)"/><path class="cls-4" d="M569.66,70.69l.85-7.18L566.3,63a19.09,19.09,0,0,0-.45-3l3.89-1.66-2.86-6.65L563,53.34a19.73,19.73,0,0,0-1.9-2.39l2.54-3.39-5.8-4.33-2.54,3.4a18.46,18.46,0,0,0-2.84-1.13l.5-4.2-7.19-.85-.5,4.21a19,19,0,0,0-3,.45l-1.67-3.89-6.65,2.86,1.68,3.9a19.09,19.09,0,0,0-2.39,1.89l-3.39-2.53-4.34,5.8,3.4,2.54a19.5,19.5,0,0,0-1.12,2.84l-4.2-.5-.85,7.19,4.21.5a20.16,20.16,0,0,0,.44,3l-3.88,1.67,2.86,6.65,3.9-1.68a19.09,19.09,0,0,0,1.89,2.39l-2.53,3.39,5.8,4.34,2.54-3.4a19.37,19.37,0,0,0,2.83,1.12l-.49,4.2,7.18.85.5-4.21a20,20,0,0,0,3-.44l1.67,3.88,6.65-2.86-1.67-3.9A20.67,20.67,0,0,0,560,78.84l3.39,2.53,4.33-5.8L564.33,73a18.35,18.35,0,0,0,1.13-2.83Z" transform="translate(1.17 -2.32)"/><circle class="cls-4" cx="263.48" cy="35.64" r="7.03"/><path class="cls-4" d="M297.69,43.31V32.48h-6.35a28.5,28.5,0,0,0-1.19-4.42l5.48-3.16-5.42-9.39-5.5,3.18a30.78,30.78,0,0,0-3.24-3.22L284.64,10l-9.39-5.42-3.17,5.5a29.63,29.63,0,0,0-4.42-1.18V2.57H256.82V8.92a28.37,28.37,0,0,0-4.41,1.19l-3.16-5.48-9.39,5.42,3.18,5.5a29.85,29.85,0,0,0-3.22,3.24l-5.49-3.17L228.91,25l5.5,3.17a29.61,29.61,0,0,0-1.17,4.42h-6.33V43.44h6.36a28.37,28.37,0,0,0,1.19,4.41L229,51l5.42,9.39,5.5-3.18a29,29,0,0,0,3.24,3.22L240,65.93l9.39,5.42,3.17-5.5A29.61,29.61,0,0,0,257,67v6.33h10.83V67a28.5,28.5,0,0,0,4.42-1.19l3.16,5.48,9.39-5.42-3.18-5.5a29.85,29.85,0,0,0,3.22-3.24l5.48,3.17,5.42-9.39-5.5-3.17a29.63,29.63,0,0,0,1.18-4.42ZM282.88,38A20.58,20.58,0,1,1,262.3,17.38,20.6,20.6,0,0,1,282.88,38Z" transform="translate(1.17 -2.32)"/><path class="cls-3" d="M262.3,54.22A16.27,16.27,0,1,1,278.57,38,16.27,16.27,0,0,1,262.3,54.22Zm0-28.92A12.66,12.66,0,1,0,275,38,12.67,12.67,0,0,0,262.3,25.3Z" transform="translate(1.17 -2.32)"/><path class="cls-3" d="M262.3,56.36A18.41,18.41,0,1,1,280.71,38,18.43,18.43,0,0,1,262.3,56.36Zm0-35.77A17.37,17.37,0,1,0,279.67,38,17.39,17.39,0,0,0,262.3,20.59Z" transform="translate(1.17 -2.32)"/><path class="cls-4" d="M517.07,70.9l8.15-2-3.41-14-8.19,2a39.69,39.69,0,0,0-2.92-5.31l6.07-5.8-9.94-10.4-6.09,5.82a38.7,38.7,0,0,0-5.19-3.14L497.91,30,484.1,26l-2.36,8.09a39.78,39.78,0,0,0-6.07-.13l-2-8.15-14,3.4,2,8.2a38.6,38.6,0,0,0-5.31,2.92l-5.81-6.07L440.2,44.2,446,50.29a39.45,39.45,0,0,0-3.14,5.2l-8.06-2.36-4,13.8,8.09,2.37a39.65,39.65,0,0,0-.13,6.06l-8.15,2,3.4,14,8.2-2a39.19,39.19,0,0,0,2.92,5.31l-6.07,5.8,9.93,10.4,6.09-5.82a38.81,38.81,0,0,0,5.2,3.14l-2.36,8.06,13.8,4,2.37-8.09a39.65,39.65,0,0,0,6.06.13l2,8.15,14-3.4-2-8.2a40.32,40.32,0,0,0,5.31-2.92l5.8,6.07,10.4-9.93L509.8,96a38.64,38.64,0,0,0,3.13-5.19L521,93.13l4-13.81L516.94,77A39.68,39.68,0,0,0,517.07,70.9Zm-39.16,30.64a28.41,28.41,0,1,1,28.41-28.41A28.41,28.41,0,0,1,477.91,101.54Zm20-28.41a20,20,0,1,1-20-20A20,20,0,0,1,497.89,73.13Z" transform="translate(1.17 -2.32)"/><path class="cls-6" d="M443.37,107.2l0-.88-4.93-.6a16,16,0,0,0-1-4.08l4-3.09-.38-.74a21.36,21.36,0,0,0-4.09-5.49l-.63-.61-3.91,3.06a15.83,15.83,0,0,0-3.59-2.17l.61-5-.79-.25a21.16,21.16,0,0,0-3.85-.84,20.26,20.26,0,0,0-2.92-.15H421l-.61,4.93a15.85,15.85,0,0,0-4.07,1l-3.1-4-.74.39A21.33,21.33,0,0,0,407,92.82l-.6.63,3.06,3.91a16.47,16.47,0,0,0-2.18,3.59l-5-.61-.25.8a21.06,21.06,0,0,0-.84,3.84,21.89,21.89,0,0,0-.15,2.92v.88l4.93.6a16.45,16.45,0,0,0,1,4.08L403,116.55l.38.74a21.14,21.14,0,0,0,4.09,5.49l.62.61,3.91-3.06a15.9,15.9,0,0,0,3.6,2.17l-.61,5,.79.25a21,21,0,0,0,3.85.84,20.26,20.26,0,0,0,2.92.15h.87l.6-4.93a15.92,15.92,0,0,0,4.08-1l3.1,4,.74-.39a21.05,21.05,0,0,0,5.48-4.08l.61-.63L435,117.74a16.24,16.24,0,0,0,2.18-3.59l5,.61.25-.8a21.69,21.69,0,0,0,1-6.76Zm-22.49,15a14.69,14.69,0,1,1,15.93-13.33A14.68,14.68,0,0,1,420.88,122.18Zm1.86-20.86a6.26,6.26,0,1,0,5.68,6.79A6.25,6.25,0,0,0,422.74,101.32Zm-1,10.79a4.58,4.58,0,1,1,5-4.15A4.57,4.57,0,0,1,421.78,112.11Z" transform="translate(1.17 -2.32)"/><path class="cls-6" d="M305,72l3-.35,0-.5a12.59,12.59,0,0,0-.38-4.1l-.13-.51-3,.34a10.13,10.13,0,0,0-1.16-2.24l1.87-2.37-.32-.38a13.27,13.27,0,0,0-1.72-1.63,12,12,0,0,0-1.45-1l-.45-.27-1.86,2.35a9.26,9.26,0,0,0-2.41-.76l-.35-3-.5,0a12.59,12.59,0,0,0-4.1.38l-.51.13.35,3a9.71,9.71,0,0,0-2.24,1.16l-2.38-1.88-.37.33a12.7,12.7,0,0,0-1.64,1.72,12.34,12.34,0,0,0-1,1.45l-.27.45,2.34,1.86a10,10,0,0,0-.76,2.41l-3,.35,0,.5a13.1,13.1,0,0,0,.38,4.09l.13.51,3-.34a9.56,9.56,0,0,0,1.17,2.24l-1.88,2.37.33.38a12.62,12.62,0,0,0,1.71,1.64,13.36,13.36,0,0,0,1.46,1l.45.27,1.85-2.35a9.81,9.81,0,0,0,2.41.77l.35,3,.5,0a12.59,12.59,0,0,0,4.1-.38l.51-.13-.35-3a9.6,9.6,0,0,0,2.25-1.16l2.37,1.88.38-.33a13.86,13.86,0,0,0,1.63-1.71,13.44,13.44,0,0,0,1-1.46l.26-.45-2.34-1.86A9.59,9.59,0,0,0,305,72Zm-3.59,2.76a7.57,7.57,0,1,1-1.59-10.59A7.57,7.57,0,0,1,301.41,74.73Z" transform="translate(1.17 -2.32)"/><path class="cls-6" d="M798.45,96.91a11.49,11.49,0,0,0-.72-2.22,11.32,11.32,0,0,0-.8-1.55l-2.81,1.21a9.5,9.5,0,0,0-2.36-2.45L792.9,89a12.77,12.77,0,0,0-3.74-1.6L788,90.27a9.46,9.46,0,0,0-3.4-.06l-1.22-2.85a13.16,13.16,0,0,0-2.23.72,13.31,13.31,0,0,0-1.55.8l1.21,2.81a9.53,9.53,0,0,0-2.45,2.37l-2.88-1.15a12.44,12.44,0,0,0-1.59,3.75l2.84,1.13a9.47,9.47,0,0,0-.06,3.4l-2.85,1.23a12.27,12.27,0,0,0,.73,2.22,12.51,12.51,0,0,0,.79,1.55l2.82-1.21a9.34,9.34,0,0,0,2.36,2.45l-1.15,2.88a12.83,12.83,0,0,0,3.75,1.6l1.13-2.85a9.75,9.75,0,0,0,3.41.07L788.9,112a13.16,13.16,0,0,0,2.23-.72,13.31,13.31,0,0,0,1.55-.8l-1.21-2.81a9.53,9.53,0,0,0,2.45-2.37l2.87,1.15a12.51,12.51,0,0,0,1.6-3.74l-2.84-1.14a9.47,9.47,0,0,0,.06-3.4Zm-10.21,7.63a5.3,5.3,0,1,1,2.78-7A5.3,5.3,0,0,1,788.24,104.54Z" transform="translate(1.17 -2.32)"/></g></g></g></svg>