<svg xmlns="http://www.w3.org/2000/svg" xmlns:xlink="http://www.w3.org/1999/xlink" viewBox="0 0 1368.58 275"><defs><style>.cls-1,.cls-4,.cls-7{fill:none;}.cls-2{clip-path:url(#clip-path);}.cls-3,.cls-5{fill:#232f3e;}.cls-4,.cls-7{stroke:#777;}.cls-4,.cls-5,.cls-7{stroke-miterlimit:10;}.cls-4{stroke-width:2px;}.cls-5{stroke:#5c666f;}.cls-6{fill:#777;}.cls-7{stroke-width:4px;}</style><clipPath id="clip-path" transform="translate(1 -4.84)"><rect class="cls-1" width="1366" height="278"/></clipPath></defs><g id="Layer_2" data-name="Layer 2"><g id="Layer_1-2" data-name="Layer 1"><g class="cls-2"><path class="cls-3" d="M149,111.06l-.5-4.78-27.23-.9a89.21,89.21,0,0,0-7.46-21.84l20.13-18.89-2.46-3.85a116.93,116.93,0,0,0-25-28.06l-3.73-3L82.83,48.38A89.19,89.19,0,0,0,62.14,38.21l.91-27.61-4.46-1A117.11,117.11,0,0,0,37.16,6.9a119.6,119.6,0,0,0-16,.58L16.35,8l-.89,27.29A87.74,87.74,0,0,0,.38,39.76V98.84a41.15,41.15,0,1,1,0,48.94v59.09c1.39.54,2.78,1.07,4.19,1.55L3.66,236l4.46,1a117,117,0,0,0,21.43,2.71,119.6,119.6,0,0,0,16-.58l4.77-.5.89-27.29a88.28,88.28,0,0,0,21.8-7.48L91.9,224.05l3.85-2.46a116.79,116.79,0,0,0,28-25l3-3.74-18.63-19.92a88.81,88.81,0,0,0,10.15-20.73l27.56.91,1-4.47A117.15,117.15,0,0,0,149,111.06Z" transform="translate(1 -4.84)"/><path class="cls-3" d="M1224.35,122.14v1.17l-.46-.73c-9.52,1.75-19.75-1.14-28.69,4.12-.31.18-.82,0-1.23.09-5.28.62-8.37,4-8.35,9.21l-163.75,48.08c-4.64,1.29-7.17,5.55-11,8-.46.29-.2,1.52-.42,2.27-1.15,4.09,2.51,6.53,4,10a29.62,29.62,0,0,1-3.72-.19c-8-1.44-16.12-2.31-23.88-4.86-2.71-.89-5.74-.84-8-3-6.68-6.21-15.17-6.25-23.65-6.3-1.23,0-1.33,1.11-2,1.64-2.77,2.3-5.27,5.17-9.41,5.21-3,0-6.09-.46-9,.67-.85.33-2,.07-2-.78,0-2.72-.22-5.05-3.52-6.17-1-.34-1.57-2-2.28-3.15s-1.85-1.32-3.23-1c-7.54,1.63-13.79-1.41-19.12-5.9-2.94-2.47-5.65-4-9.53-3.76-2.19.15-4.43.24-6.24-1.45-2.56-2.4-5.85-3.45-9.16-4.48-9.89-3.1-20.13-4.7-30.25-6.8-4.88-1-9.59-.82-13.95,1.6s-8.82,4.2-14,4.14c-7.45-.07-14.92-.48-22.36.39a3.26,3.26,0,0,1-3.51-1.63c-3.91-7.34-10.58-11.54-18.26-14.24-14.84-5.2-28.25-12.54-39.88-23a26.52,26.52,0,0,0-9.27-5.53h-144a26.52,26.52,0,0,0-9.27,5.53c-11.64,10.41-25,17.75-39.88,23-7.68,2.7-14.35,6.9-18.27,14.24a3.24,3.24,0,0,1-3.5,1.63c-7.44-.87-14.91-.46-22.36-.39-5.19.06-9.64-1.71-14-4.14s-9.08-2.62-13.95-1.6c-10.12,2.1-20.37,3.7-30.25,6.8-3.31,1-6.6,2.08-9.16,4.48-1.81,1.69-4.05,1.6-6.24,1.45-3.88-.27-6.59,1.29-9.53,3.76-5.33,4.49-11.59,7.53-19.13,5.9-1.37-.3-2.42-.21-3.22,1s-1.26,2.81-2.28,3.15c-3.31,1.12-3.48,3.45-3.53,6.17,0,.85-1.16,1.11-2,.78-2.94-1.13-6-.65-9-.67-4.14,0-6.65-2.91-9.41-5.21-.64-.53-.75-1.65-2-1.64-8.48,0-17,.09-23.65,6.3-2.28,2.11-5.31,2.06-8,3-7.76,2.55-15.88,3.42-23.88,4.86a29.62,29.62,0,0,1-3.72.19c1.52-3.52,5.18-6,4-10-.21-.75,0-2-.41-2.27-3.87-2.44-6.4-6.7-11-8L126.68,136c0-5.17-3.07-8.59-8.35-9.21-.41-.05-.92.09-1.23-.09-8.95-5.26-19.18-2.37-28.69-4.12L71,150.24c.14,61.48-50.92,27-65.59,60.86H.21v68.74H1366V122.14Z" transform="translate(1 -4.84)"/><ellipse class="cls-3" cx="34.36" cy="118.47" rx="34.36" ry="34.43"/><path class="cls-4" d="M301.6,169.18a83.16,83.16,0,0,0-2.37-26.46L279.39,145a62,62,0,0,0-10.12-19.77l12.56-15.81a82.34,82.34,0,0,0-20.35-17L249.05,108a62.08,62.08,0,0,0-21.11-6.82l-2.28-20.08a82.43,82.43,0,0,0-26.41,2.38l2.25,19.87a61.84,61.84,0,0,0-19.72,10.15L166,100.92a82.72,82.72,0,0,0-17,20.4l15.62,12.45a62.55,62.55,0,0,0-6.8,21.15l-20,2.28a82.75,82.75,0,0,0,2.38,26.47L160,181.41a62.23,62.23,0,0,0,10.12,19.77L157.54,217a82.61,82.61,0,0,0,20.36,17l12.43-15.65a61.79,61.79,0,0,0,21.1,6.81l2.28,20.08a82.09,82.09,0,0,0,26.41-2.37L237.87,223a61.84,61.84,0,0,0,19.72-10.15l15.79,12.59a82.86,82.86,0,0,0,17-20.4l-15.62-12.45a62.55,62.55,0,0,0,6.8-21.15Zm-78,28.39A34.6,34.6,0,1,1,254,159.29,34.55,34.55,0,0,1,223.59,197.57Z" transform="translate(1 -4.84)"/><ellipse class="cls-4" cx="220.69" cy="158.35" rx="21.42" ry="21.46"/><path class="cls-3" d="M301.6,169.18a83.16,83.16,0,0,0-2.37-26.46L279.39,145a62,62,0,0,0-10.12-19.77l12.56-15.81a82.34,82.34,0,0,0-20.35-17L249.05,108a62.08,62.08,0,0,0-21.11-6.82l-2.28-20.08a82.43,82.43,0,0,0-26.41,2.38l2.25,19.87a61.84,61.84,0,0,0-19.72,10.15L166,100.92a82.72,82.72,0,0,0-17,20.4l15.62,12.45a62.55,62.55,0,0,0-6.8,21.15l-20,2.28a82.75,82.75,0,0,0,2.38,26.47L160,181.41a62.23,62.23,0,0,0,10.12,19.77L157.54,217a82.61,82.61,0,0,0,20.36,17l12.43-15.65a61.79,61.79,0,0,0,21.1,6.81l2.28,20.08a82.09,82.09,0,0,0,26.41-2.37L237.87,223a61.84,61.84,0,0,0,19.72-10.15l15.79,12.59a82.86,82.86,0,0,0,17-20.4l-15.62-12.45a62.55,62.55,0,0,0,6.8-21.15Zm-78,28.39A34.6,34.6,0,1,1,254,159.29,34.55,34.55,0,0,1,223.59,197.57Z" transform="translate(1 -4.84)"/><ellipse class="cls-3" cx="220.69" cy="158.35" rx="21.42" ry="21.46"/><ellipse class="cls-4" cx="1283.28" cy="118.47" rx="34.36" ry="34.43"/><path class="cls-4" d="M1034.08,171.47a62.11,62.11,0,0,0,6.8,21.15l-15.62,12.45a82.86,82.86,0,0,0,17,20.4L1058,212.88A62,62,0,0,0,1077.77,223l-2.26,19.87a82.12,82.12,0,0,0,26.42,2.37l2.28-20.08a61.86,61.86,0,0,0,21.1-6.81L1137.74,234a82.38,82.38,0,0,0,20.35-17l-12.55-15.81a62.23,62.23,0,0,0,10.12-19.77l19.83,2.26a82.41,82.41,0,0,0,2.37-26.47l-20-2.28a62.11,62.11,0,0,0-6.8-21.15l15.62-12.45a82.68,82.68,0,0,0-17-20.4l-15.78,12.59a62,62,0,0,0-19.73-10.15l2.26-19.87a83.23,83.23,0,0,0-11.16-2.06,82.22,82.22,0,0,0-15.26-.32l-2.28,20.08a62.09,62.09,0,0,0-21.1,6.82l-12.43-15.65a82.16,82.16,0,0,0-20.35,17l12.55,15.81A62.43,62.43,0,0,0,1036.24,145l-19.83-2.26a82.39,82.39,0,0,0-2.37,26.46Zm27.56-12.18a34.53,34.53,0,1,1,30.41,38.28A34.55,34.55,0,0,1,1061.64,159.29Z" transform="translate(1 -4.84)"/><ellipse class="cls-4" cx="1096.95" cy="158.35" rx="21.42" ry="21.46"/><ellipse class="cls-3" cx="1283.28" cy="118.47" rx="34.36" ry="34.43"/><path class="cls-3" d="M1034.08,171.47a62.11,62.11,0,0,0,6.8,21.15l-15.62,12.45a82.86,82.86,0,0,0,17,20.4L1058,212.88A62,62,0,0,0,1077.77,223l-2.26,19.87a82.12,82.12,0,0,0,26.42,2.37l2.28-20.08a61.86,61.86,0,0,0,21.1-6.81L1137.74,234a82.38,82.38,0,0,0,20.35-17l-12.55-15.81a62.23,62.23,0,0,0,10.12-19.77l19.83,2.26a82.41,82.41,0,0,0,2.37-26.47l-20-2.28a62.11,62.11,0,0,0-6.8-21.15l15.62-12.45a82.68,82.68,0,0,0-17-20.4l-15.78,12.59a62,62,0,0,0-19.73-10.15l2.26-19.87a83.23,83.23,0,0,0-11.16-2.06,82.22,82.22,0,0,0-15.26-.32l-2.28,20.08a62.09,62.09,0,0,0-21.1,6.82l-12.43-15.65a82.16,82.16,0,0,0-20.35,17l12.55,15.81A62.43,62.43,0,0,0,1036.24,145l-19.83-2.26a82.39,82.39,0,0,0-2.37,26.46Zm27.56-12.18a34.53,34.53,0,1,1,30.41,38.28A34.55,34.55,0,0,1,1061.64,159.29Z" transform="translate(1 -4.84)"/><ellipse class="cls-3" cx="1096.95" cy="158.35" rx="21.42" ry="21.46"/><ellipse class="cls-5" cx="597.55" cy="137.03" rx="13.1" ry="13.12"/><path class="cls-5" d="M662.5,151.87V131.63H650.67a55.57,55.57,0,0,0-2.22-8.24l10.21-5.9L648.56,100,638.3,105.9a55.28,55.28,0,0,0-6-6l5.9-10.24L620.68,79.52l-5.91,10.27a54,54,0,0,0-8.24-2.19V75.78H586.34V87.64a55.47,55.47,0,0,0-8.23,2.23l-5.89-10.23L554.73,89.76,560.65,100a55.28,55.28,0,0,0-6,6l-10.22-5.91-10.1,17.52,10.25,5.93a55.29,55.29,0,0,0-2.19,8.25H530.6v20.24h11.84a54.06,54.06,0,0,0,2.22,8.24l-10.21,5.9,10.1,17.53,10.25-5.94a55.37,55.37,0,0,0,6,6l-5.91,10.24,17.49,10.12L578.34,194a54.17,54.17,0,0,0,8.23,2.19V208h20.2V196.1a53.83,53.83,0,0,0,8.22-2.23l5.9,10.23L638.38,194l-5.93-10.27a55.38,55.38,0,0,0,6-6.05l10.22,5.91,10.1-17.52-10.25-5.93a54.08,54.08,0,0,0,2.18-8.25Zm-27.61-10a38.34,38.34,0,1,1-38.34-38.42A38.43,38.43,0,0,1,634.89,141.87Z" transform="translate(1 -4.84)"/><path class="cls-5" d="M596.55,172.25a30.38,30.38,0,1,1,30.32-30.38A30.38,30.38,0,0,1,596.55,172.25Zm0-54a23.64,23.64,0,1,0,23.59,23.64A23.65,23.65,0,0,0,596.55,118.23Z" transform="translate(1 -4.84)"/><path class="cls-3" d="M596.55,107.51a34.37,34.37,0,1,0,34.3,34.36,34.36,34.36,0,0,0-34.3-34.36Zm0,66.8a32.44,32.44,0,1,1,32.38-32.44,32.44,32.44,0,0,1-32.38,32.44Z" transform="translate(1 -4.84)"/><path class="cls-6" d="M32,165.43l1.39,0A42.16,42.16,0,0,0,64.05,94.51,42,42,0,0,0,.38,97.19v3.36a40,40,0,0,1,33-17.38l1.33,0A40.14,40.14,0,1,1,.38,146.08v3.35A42,42,0,0,0,32,165.43Z" transform="translate(1 -4.84)"/><path class="cls-6" d="M149.94,111l-.59-5.64-27.32-.9a89.55,89.55,0,0,0-7-20.64l20.19-19-2.9-4.56A117.65,117.65,0,0,0,107.07,32l-4.41-3.57L82.72,47.11a89.91,89.91,0,0,0-19.56-9.6L64.07,9.8,58.8,8.63A118,118,0,0,0,21,6.49l-5.63.59-.9,27.37A89.73,89.73,0,0,0,.38,38.68v2.16a86.61,86.61,0,0,1,15.28-4.59l.77-.16.89-27.2,3.91-.41a115.33,115.33,0,0,1,37.14,2.1l3.65.81-.9,27.53.7.24A87.82,87.82,0,0,1,82.28,49.22l.65.43,19.83-18.6,3,2.47a115.91,115.91,0,0,1,24.78,27.81l2,3.16L112.54,83.32l.33.66a88.64,88.64,0,0,1,7.37,21.6l.16.78,27.15.89.41,3.91a118.11,118.11,0,0,1,.57,15.94,116.21,116.21,0,0,1-2.67,21.28l-.81,3.66-27.48-.9-.23.7a88.23,88.23,0,0,1-10,20.5l-.43.66,18.56,19.86L123,195.92a116.08,116.08,0,0,1-27.76,24.83l-3.15,2-18.79-20.1-.66.33a87.44,87.44,0,0,1-21.56,7.39l-.77.16-.89,27.2-3.9.41a115.38,115.38,0,0,1-37.15-2.1l-3.65-.81.9-27.53-.7-.24q-2.28-.78-4.51-1.68V208c1,.41,2.1.8,3.17,1.17l-.91,27.71L7.91,238a117.22,117.22,0,0,0,21.6,2.72c1.27.05,2.54.07,3.81.07a118.9,118.9,0,0,0,12.37-.65l5.64-.59.89-27.37a89.88,89.88,0,0,0,20.61-7.07l18.9,20.23,4.55-2.9a117.69,117.69,0,0,0,28.24-25.27l3.56-4.4-18.68-20a90.17,90.17,0,0,0,9.59-19.6l27.65.91,1.17-5.28a119.28,119.28,0,0,0,2.72-21.65A120.48,120.48,0,0,0,149.94,111Z" transform="translate(1 -4.84)"/><path class="cls-7" d="M1365.58,165.81l-2.89-2.72q1.57-3.21,2.89-6.53V90.07a89.3,89.3,0,0,0-8.52-16.33l8.52-9.12V42.12A116.05,116.05,0,0,0,1344.67,25l-3.85-2.46L1322,42.75a88.21,88.21,0,0,0-21.79-7.48L1299.28,8l-4.77-.5a119.6,119.6,0,0,0-16-.58,117,117,0,0,0-21.42,2.71l-4.46,1,.9,27.61a89.12,89.12,0,0,0-20.68,10.17l-19.89-18.66-3.72,3a116.51,116.51,0,0,0-25,28.06l-2.46,3.85,20.13,18.89a88.79,88.79,0,0,0-7.46,21.84l-27.23.9-.5,4.78a117.15,117.15,0,0,0,2.12,37.54l1,4.47,27.56-.91a89.6,89.6,0,0,0,10.15,20.73l-18.62,19.92,3,3.74a117,117,0,0,0,28,25l3.85,2.46,18.85-20.17a88.28,88.28,0,0,0,21.8,7.48l.89,27.29,4.77.5a119.54,119.54,0,0,0,16,.58,117,117,0,0,0,21.42-2.71l4.46-1-.9-27.61a88.93,88.93,0,0,0,20.68-10.17l19.89,18.66,3.72-3a116.29,116.29,0,0,0,10.22-9.36Zm-81.95-1.38A41.14,41.14,0,1,1,1323.31,122,41.13,41.13,0,0,1,1283.63,164.43Z" transform="translate(1 -4.84)"/><path class="cls-3" d="M1365.58,165.81l-2.89-2.72q1.57-3.21,2.89-6.53V90.07a89.3,89.3,0,0,0-8.52-16.33l8.52-9.12V42.12A116.05,116.05,0,0,0,1344.67,25l-3.85-2.46L1322,42.75a88.21,88.21,0,0,0-21.79-7.48L1299.28,8l-4.77-.5a119.6,119.6,0,0,0-16-.58,117,117,0,0,0-21.42,2.71l-4.46,1,.9,27.61a89.12,89.12,0,0,0-20.68,10.17l-19.89-18.66-3.72,3a116.51,116.51,0,0,0-25,28.06l-2.46,3.85,20.13,18.89a88.79,88.79,0,0,0-7.46,21.84l-27.23.9-.5,4.78a117.15,117.15,0,0,0,2.12,37.54l1,4.47,27.56-.91a89.6,89.6,0,0,0,10.15,20.73l-18.62,19.92,3,3.74a117,117,0,0,0,28,25l3.85,2.46,18.85-20.17a88.28,88.28,0,0,0,21.8,7.48l.89,27.29,4.77.5a119.54,119.54,0,0,0,16,.58,117,117,0,0,0,21.42-2.71l4.46-1-.9-27.61a88.93,88.93,0,0,0,20.68-10.17l19.89,18.66,3.72-3a116.29,116.29,0,0,0,10.22-9.36Zm-81.95-1.38A41.14,41.14,0,1,1,1323.31,122,41.13,41.13,0,0,1,1283.63,164.43Z" transform="translate(1 -4.84)"/></g></g></g></svg>