<svg id="Layer_1" data-name="Layer 1" xmlns="http://www.w3.org/2000/svg" viewBox="0 0 240.94 153.07"><defs><style>.cls-1{fill:#fff;}.cls-2,.cls-6{fill:none;}.cls-11,.cls-2{stroke:#231f20;}.cls-11,.cls-2,.cls-6{stroke-miterlimit:10;}.cls-3{fill:#939598;}.cls-4,.cls-8{font-size:8px;}.cls-11,.cls-12,.cls-4{fill:#231f20;}.cls-4{font-family:Roboto-Medium, Roboto;font-weight:500;}.cls-5{fill:#2e3192;}.cls-6{stroke:#f15a29;stroke-width:3px;}.cls-7{fill:#f15a29;}.cls-8{fill:#ed1c24;}.cls-12,.cls-8{font-family:Roboto-Bold, Roboto;font-weight:700;}.cls-9{letter-spacing:0.01em;}.cls-10{letter-spacing:-0.02em;}.cls-12{font-size:7px;}.cls-13{letter-spacing:-0.01em;}.cls-14{letter-spacing:-0.01em;}.cls-15{letter-spacing:-0.01em;}.cls-16{letter-spacing:0em;}.cls-17{letter-spacing:-0.01em;}.cls-18{letter-spacing:-0.01em;}.cls-19{letter-spacing:0em;}</style></defs><rect class="cls-1" x="-1.42" y="-1.17" width="243.78" height="153.07" rx="11.34"/><rect class="cls-2" x="-1.42" y="-1.17" width="243.78" height="153.07" rx="11.34"/><rect class="cls-3" y="101.11" width="240.94" height="27.06"/><text class="cls-4" transform="translate(141.98 143.25)">902100</text><text class="cls-4" transform="translate(171.94 143.33)"><tspan xml:space="preserve">*  78928391301</tspan></text><rect class="cls-5" x="7.41" y="135.21" width="26.04" height="8.04"/><rect class="cls-6" x="137.67" y="131.15" width="35.96" height="16.9"/><rect class="cls-7" x="147.84" y="86.19" width="3.06" height="44.96"/><rect class="cls-7" x="147.84" y="86.19" width="17.87" height="3.57"/><text class="cls-8" transform="translate(169.42 90.22)"><tspan class="cls-9">H</tspan><tspan x="5.72" y="0">ARD</tspan><tspan class="cls-10" x="21.41" y="0">W</tspan><tspan x="28.24" y="0">ARE ID</tspan></text><rect class="cls-11" y="10.33" width="240.94" height="27.06"/><text class="cls-12" transform="translate(14.51 52.49)">Lo<tspan class="cls-13" x="7.75" y="0">r</tspan><tspan x="10.24" y="0">em ipsum dolor sit amet, consectetur adipiscing elit, sed do </tspan><tspan x="0" y="8.4">eiusmod tempor incididunt ut labo</tspan><tspan class="cls-13" x="107.77" y="8.4">r</tspan><tspan x="110.26" y="8.4">e et dolo</tspan><tspan class="cls-13" x="137.4" y="8.4">r</tspan><tspan x="139.89" y="8.4">e magna aliqua. Ut </tspan><tspan x="0" y="16.8">enim ad minim </tspan><tspan class="cls-14" x="48.3" y="16.8">v</tspan><tspan x="51.79" y="16.8">eniam, quis nostrud e</tspan><tspan class="cls-15" x="119.47" y="16.8">x</tspan><tspan class="cls-16" x="122.96" y="16.8">e</tspan><tspan class="cls-13" x="126.75" y="16.8">r</tspan><tspan x="129.23" y="16.8">citation ullamco laboris </tspan><tspan x="0" y="25.2">nisi ut aliquip ex ea commodo consequat. Duis aute iru</tspan><tspan class="cls-13" x="171.81" y="25.2">r</tspan><tspan x="174.3" y="25.2">e dolor in </tspan><tspan class="cls-13" x="0" y="33.6">r</tspan><tspan x="2.49" y="33.6">ep</tspan><tspan class="cls-17" x="10.21" y="33.6">r</tspan><tspan x="12.7" y="33.6">ehenderit in </tspan><tspan class="cls-18" x="51.87" y="33.6">v</tspan><tspan class="cls-19" x="55.36" y="33.6">oluptate </tspan><tspan class="cls-14" x="83.04" y="33.6">v</tspan><tspan x="86.53" y="33.6">elit esse</tspan></text></svg>