<svg xmlns="http://www.w3.org/2000/svg" xmlns:xlink="http://www.w3.org/1999/xlink" viewBox="0 0 1366.69 328.21"><defs><style>.cls-1{fill:none;}.cls-2{clip-path:url(#clip-path);}.cls-3{fill:#c9cccf;}</style><clipPath id="clip-path" transform="translate(0.22 -2.63)"><rect class="cls-1" width="1366" height="329"/></clipPath></defs><g id="Layer_2" data-name="Layer 2"><g id="Layer_1-2" data-name="Layer 1"><g class="cls-2"><path class="cls-3" d="M1311.27,43.87v3.65a39.81,39.81,0,0,0-18.86-6.82,107.57,107.57,0,0,0-14.9-.59c-7.48.22-14.84.46-22.12-2.22-11.52-4.24-23.51-5.39-35.65-5l1.82-2-3.42-3.15-1.84,2a13.09,13.09,0,0,0-1.74-.91l.6-2.67-4.54-1-.6,2.65a11.73,11.73,0,0,0-2,.08l-.81-2.61-4.44,1.39.81,2.6a11.3,11.3,0,0,0-1.66,1l-2-1.84-3.15,3.42,1.53,1.41a8.16,8.16,0,0,0-1.42,1.52,3.51,3.51,0,0,1-.29.36l-1.39-.31-.37,1.64a5.2,5.2,0,0,1-2.53.08c-13.35-2.13-26.55-.09-39.51,2.55-10.11,2.07-20,3.75-30.38,2.85-11.43-1-22.87-2-34.33-2.55a123.54,123.54,0,0,0-18.94.47,21.58,21.58,0,0,0,1-2.28l4.63.68,1.16-7.89-4.6-.68a22.33,22.33,0,0,0-.38-3.34l4.35-1.72-2.94-7.42L1068,19a21.43,21.43,0,0,0-2-2.7l2.91-3.66-6.25-5-2.9,3.65A20.49,20.49,0,0,0,1056.7,10l.69-4.63-7.89-1.17-.69,4.61a21.09,21.09,0,0,0-3.34.38l-1.72-4.35-7.42,2.93,1.72,4.33a20.83,20.83,0,0,0-2.71,2l-3.66-2.9-3.59,4.52-1.52-3-1.81.9a10.07,10.07,0,0,0-1-1.09l1.12-1.69L1022,8.87l-1.11,1.69a9.88,9.88,0,0,0-1.39-.47l.12-2-3.46-.21-.12,2a9.07,9.07,0,0,0-1.43.29l-.91-1.82-3.09,1.55.9,1.81a9.2,9.2,0,0,0-1.09,1l-1.7-1.12-1.91,2.89,1.69,1.12a9.71,9.71,0,0,0-.46,1.38l-2-.12-.19,3.15c-5.52-2.38-28.84,5.78-35,5.24l-10.76,1c-2.68,1.44-5.58,2.57-8,4.38-3.73,2.8-7.87,3.71-12.36,4.2-21.76,2.39-23.24,16.87-45,14.67-13.66-1.38-6.22-7.75-17.24-1.31L874.35,45l-3.05,3.08a21.32,21.32,0,0,0-2.71-1.55l1.1-4.21-7.18-1.88-1.1,4.19a19.25,19.25,0,0,0-3.13,0l-1.15-4.19-7.15,2,1.14,4.18a19,19,0,0,0-2.7,1.57l-3.09-3.06-5.22,5.28,3.08,3.05a19.15,19.15,0,0,0-1.55,2.71L837.43,55l-1.88,7.18,4.19,1.09q-.06.78-.06,1.56a20.25,20.25,0,0,1-7.4-1.61c-11.5-4.87-42.54-9.33-55.13-8-7.32.77-14.79,1.33-21.91-.17-8.67-1.82-14.78,1.34-20.08,7.45-7,8-55.67,26-65.69,24a149.8,149.8,0,0,0-25.06-2.84c-4.19-.12-9.53,1-10.83-5.46a2.57,2.57,0,0,0-1.93-1.35c-2.21-.18-3.34-1.37-4.33-3.26-1.61-3.08-4.35-3.7-7.43-2.33-.32.14-.64.31-.95.45l-.88-.57c-2.88-1.76-5.67-1.49-7.67,1.35-1.22,1.75-2.49,2.78-4.71,2.68a2.56,2.56,0,0,0-2.08,1.09c-2.13,6.24-7.28,4.44-11.45,4a149.58,149.58,0,0,0-25.22-.42c-10.19.67-19.38-2.13-26.57-10-5.46-6-11.65-9-20.27-6.89-7.08,1.69-14.56,1.34-21.9.77-12.62-1-24.82,1.55-36.75,5.24a20.58,20.58,0,0,1-5.55.92c.05-.5.09-1,.1-1.49l4.28-.67-1.15-7.33-4.3.68a19.8,19.8,0,0,0-1.28-2.86l3.38-2.72-4.66-5.78-3.39,2.73a20.13,20.13,0,0,0-2.53-1.83l1.56-4L441,44l-1.56,4a20.63,20.63,0,0,0-3.11-.32l-.68-4.28-7.33,1.15.68,4.3a21.46,21.46,0,0,0-2.86,1.27l-2.72-3.37L419,50.28c-10.6-8.08-22.53-12-36.75-12-21.83,0-23.52-17.16-45.34-18.95-4.5-.37-8.66-1.16-12.46-3.86-2.45-1.74-5.39-2.79-8.11-4.15l-10.78-.7c-5.43.63-10.12,3.2-14.9,5.54l-.18-2.12-2,.18a9.34,9.34,0,0,0-.5-1.37l1.66-1.16-2-2.84L286,10.06a8.45,8.45,0,0,0-1.12-.94l.86-1.83-3.14-1.47-.86,1.84a10.34,10.34,0,0,0-1.44-.25l-.18-2-3.45.3.18,2a9.34,9.34,0,0,0-1.37.5l-1.16-1.66-2.84,2,1.16,1.66a10,10,0,0,0-.93,1.12l-1.84-.85-1.43,3.08-3.71-4.42-3.58,3a22.26,22.26,0,0,0-2.76-1.92L260,5.84l-7.5-2.73-1.6,4.4a21.15,21.15,0,0,0-3.35-.29l-.81-4.59L238.86,4l.81,4.61a21,21,0,0,0-3,1.42l-3-3.57-6.11,5.13,3,3.58A22.59,22.59,0,0,0,228.6,18l-4.37-1.59-2.73,7.5,4.39,1.59a22.42,22.42,0,0,0-.29,3.36l-4.58.8,1.38,7.86,4.61-.81a21,21,0,0,0,1,2.27c-7-.5-14.46.19-21.46.53C195.12,40,200.68,41,189.25,42c-10.33.9-20.27-.78-30.38-2.85-13-2.64-26.16-4.68-39.51-2.55l-.52.07-.4-1.79-2.66.6a13,13,0,0,0-.91-1.74l2-1.84-3.16-3.42-2,1.84a11.85,11.85,0,0,0-1.66-1l.81-2.6-4.44-1.39-.81,2.61a11.85,11.85,0,0,0-2-.08l-.59-2.65-4.54,1,.6,2.67a13.09,13.09,0,0,0-1.74.91l-1.84-2-3.42,3.15,1.84,2,0,0c-12.81-.59-25.48.45-37.62,4.92C49,40.57,41.66,40.33,34.18,40.11a107.57,107.57,0,0,0-14.9.59A39.82,39.82,0,0,0,0,47.78V249.11H-.22v81.73H1366.47v-287Zm-263.14-29a15.75,15.75,0,0,1,13.62,25.69.81.81,0,0,1-.58-.63,6.62,6.62,0,0,0-.23-.88,14.19,14.19,0,1,0-24.22-14.49l-.51-.24-.88-.45A15.71,15.71,0,0,1,1048.13,14.84Zm-19.56,4.06,1.8,1.42c-.23.45-.45.9-.65,1.36-.44-.09-.87-.16-1.3-.21Zm-.57-3.08-1.28,1.61.93.73-1.05-.06a8.87,8.87,0,0,0-.3-1.43Zm-20.16,4.59c0,.14,0,.28.07.42-.41-.15-.81-.32-1.22-.49Zm-737.54-1s0,0,0,.06l-.23-.05Zm-.06-4.89a8.67,8.67,0,0,0-.25,1.44l-1.05.09.9-.76-1.31-1.57ZM268,16.77l.21,2.36a12.31,12.31,0,0,0-1.49,0c-.16-.31-.31-.62-.48-.92Zm-19.66-3.52A15.74,15.74,0,0,1,261,21c-.45.21-.91.44-1.39.7A14.2,14.2,0,0,0,235,36a5.05,5.05,0,0,0-.78,1.65,15.73,15.73,0,0,1,14.12-24.43Z" transform="translate(0.22 -2.63)"/></g></g></g></svg>